<svg width="150" height="150" viewBox="0 0 150 150" fill="none" xmlns="http://www.w3.org/2000/svg">
<path fill-rule="evenodd" clip-rule="evenodd" d="M75 148C115.317 148 148 115.317 148 75C148 34.6832 115.317 2 75 2C34.6832 2 2 34.6832 2 75C2 115.317 34.6832 148 75 148ZM75 150C116.421 150 150 116.421 150 75C150 33.5786 116.421 0 75 0C33.5786 0 0 33.5786 0 75C0 116.421 33.5786 150 75 150Z" fill="#FFC41E"/>
<path fill-rule="evenodd" clip-rule="evenodd" d="M44.8814 49.846L31 49.846V64.757H44.8814V78.603H59.8303V64.757H73.7111V49.846L59.8303 49.846V36H44.8814V49.846ZM48.8814 40V53.846L35 53.846V60.757H48.8814V74.603H55.8303V60.757H69.7111V53.846L55.8303 53.846V40H48.8814Z" fill="#FFC41E"/>
<path d="M74.745 73.9577L93.5742 80.4733V107.053C93.5742 107.57 93.3625 108.065 92.9857 108.43C92.6089 108.795 92.0979 109 91.565 109H83.5279C82.9951 109 82.484 108.795 82.1072 108.43C81.7304 108.065 81.5187 107.57 81.5187 107.053V93.4256H61.4261V107.053C61.4261 107.57 61.2144 108.065 60.8376 108.43C60.4608 108.795 59.9497 109 59.4168 109H51.3798C50.8469 109 50.3358 108.795 49.959 108.43C49.5822 108.065 49.3705 107.57 49.3705 107.053V81.0257C44.704 79.4136 41.3335 75.133 41.3335 70.0641C41.3335 69.0314 41.7569 68.0411 42.5105 67.3109C43.2641 66.5807 44.2862 66.1705 45.352 66.1705C46.4178 66.1705 47.4399 66.5807 48.1935 67.3109C48.9472 68.0411 49.3705 69.0314 49.3705 70.0641C49.3725 71.0961 49.7965 72.0853 50.5497 72.8151C51.3029 73.5449 52.3239 73.9557 53.3891 73.9577H74.745ZM105.63 60.3301V64.2237C105.63 66.289 104.783 68.2697 103.276 69.73C101.769 71.1904 99.7243 72.0109 97.5928 72.0109H93.5742V76.3401L77.5002 70.7783V52.5429C77.5002 50.809 79.6626 49.9403 80.9297 51.1668L84.3555 54.4897H91.0903C92.4604 54.4897 94.0728 55.4534 94.6844 56.6421L95.5835 58.3833H103.621C104.153 58.3833 104.664 58.5884 105.041 58.9535C105.418 59.3186 105.63 59.8138 105.63 60.3301ZM91.565 60.3301C91.565 59.945 91.4471 59.5686 91.2264 59.2485C91.0056 58.9284 90.6918 58.6788 90.3246 58.5315C89.9575 58.3841 89.5535 58.3456 89.1637 58.4207C88.774 58.4958 88.416 58.6812 88.135 58.9535C87.854 59.2258 87.6626 59.5726 87.5851 59.9503C87.5075 60.3279 87.5473 60.7194 87.6994 61.0751C87.8515 61.4308 88.109 61.7349 88.4394 61.9488C88.7699 62.1627 89.1583 62.2769 89.5557 62.2769C90.0886 62.2769 90.5997 62.0718 90.9765 61.7067C91.3533 61.3416 91.565 60.8464 91.565 60.3301Z" fill="#242424"/>
<path d="M124 96.9749C124 103.675 118.483 109 111.543 109H100.865C93.9246 109 88.4077 103.675 88.4077 96.9749V91.8214H124V96.9749Z" fill="#FFC41E"/>
</svg>
