<svg width="127" height="100" viewBox="0 0 127 100" fill="none" xmlns="http://www.w3.org/2000/svg">
<mask id="path-1-inside-1" fill="white">
<path fill-rule="evenodd" clip-rule="evenodd" d="M39.3699 0H18.9559V18.967H0V39.3932H18.9559V58.3604H39.3699V39.3932H58.3257V18.967H39.3699V0Z"/>
</mask>
<path d="M18.9559 0V-4H14.9559V0H18.9559ZM39.3699 0H43.3699V-4H39.3699V0ZM18.9559 18.967V22.967H22.9559V18.967H18.9559ZM0 18.967V14.967H-4V18.967H0ZM0 39.3932H-4V43.3932H0V39.3932ZM18.9559 39.3932H22.9559V35.3932H18.9559V39.3932ZM18.9559 58.3604H14.9559V62.3604H18.9559V58.3604ZM39.3699 58.3604V62.3604H43.3699V58.3604H39.3699ZM39.3699 39.3932V35.3932H35.3699V39.3932H39.3699ZM58.3257 39.3932V43.3932H62.3257V39.3932H58.3257ZM58.3257 18.967H62.3257V14.967H58.3257V18.967ZM39.3699 18.967H35.3699V22.967H39.3699V18.967ZM18.9559 4H39.3699V-4H18.9559V4ZM22.9559 18.967V0H14.9559V18.967H22.9559ZM0 22.967H18.9559V14.967H0V22.967ZM4 39.3932V18.967H-4V39.3932H4ZM18.9559 35.3932H0V43.3932H18.9559V35.3932ZM22.9559 58.3604V39.3932H14.9559V58.3604H22.9559ZM39.3699 54.3604H18.9559V62.3604H39.3699V54.3604ZM35.3699 39.3932V58.3604H43.3699V39.3932H35.3699ZM58.3257 35.3932H39.3699V43.3932H58.3257V35.3932ZM54.3257 18.967V39.3932H62.3257V18.967H54.3257ZM39.3699 22.967H58.3257V14.967H39.3699V22.967ZM35.3699 0V18.967H43.3699V0H35.3699Z" fill="#FFC41E" mask="url(#path-1-inside-1)"/>
<path d="M59.7376 51.9967L85.4506 60.9223V97.3331C85.4506 98.0404 85.1615 98.7187 84.6469 99.2188C84.1323 99.719 83.4344 99.9999 82.7067 99.9999H71.7315C71.0038 99.9999 70.3059 99.719 69.7913 99.2188C69.2767 98.7187 68.9877 98.0404 68.9877 97.3331V78.6652H41.5495V97.3331C41.5495 98.0404 41.2604 98.7187 40.7458 99.2188C40.2313 99.719 39.5334 99.9999 38.8057 99.9999H27.8304C27.1027 99.9999 26.4048 99.719 25.8902 99.2188C25.3757 98.7187 25.0866 98.0404 25.0866 97.3331V61.679C18.7141 59.4705 14.1113 53.6068 14.1113 46.663C14.1113 45.2484 14.6895 43.8918 15.7186 42.8915C16.7477 41.8912 18.1435 41.3293 19.599 41.3293C21.0544 41.3293 22.4502 41.8912 23.4793 42.8915C24.5084 43.8918 25.0866 45.2484 25.0866 46.663C25.0893 48.0768 25.6683 49.4319 26.6969 50.4316C27.7254 51.4312 29.1197 51.994 30.5742 51.9967H59.7376ZM101.913 33.3287V38.6624C101.913 41.4916 100.757 44.2049 98.6989 46.2054C96.6406 48.206 93.849 49.3298 90.9382 49.3298H85.4506V55.2602L63.5 47.6414V22.6614C63.5 20.2862 66.4531 19.0961 68.1834 20.7762L72.8616 25.3282H82.0585C83.9295 25.3282 86.1314 26.6483 86.9665 28.2767L88.1944 30.6619H99.1696C99.8973 30.6619 100.595 30.9429 101.11 31.443C101.624 31.9431 101.913 32.6215 101.913 33.3287ZM82.7067 33.3287C82.7067 32.8013 82.5458 32.2857 82.2443 31.8471C81.9428 31.4086 81.5143 31.0667 81.0129 30.8649C80.5116 30.6631 79.9599 30.6102 79.4276 30.7131C78.8954 30.816 78.4065 31.07 78.0227 31.443C77.639 31.816 77.3777 32.2912 77.2718 32.8085C77.166 33.3258 77.2203 33.862 77.428 34.3493C77.6356 34.8366 77.9873 35.2531 78.4385 35.5462C78.8898 35.8392 79.4202 35.9956 79.9629 35.9956C80.6906 35.9956 81.3885 35.7146 81.9031 35.2145C82.4177 34.7144 82.7067 34.036 82.7067 33.3287Z" fill="#242424"/>
<path d="M127 83.5273C127 92.7049 119.466 99.9999 109.988 99.9999H95.4067C85.9288 99.9999 78.395 92.7049 78.395 83.5273V76.4675H127V83.5273Z" fill="#FFC41E"/>
</svg>
