<svg width="150" height="150" viewBox="0 0 150 150" fill="none" xmlns="http://www.w3.org/2000/svg">
<path fill-rule="evenodd" clip-rule="evenodd" d="M75 148C115.317 148 148 115.317 148 75C148 34.6832 115.317 2 75 2C34.6832 2 2 34.6832 2 75C2 115.317 34.6832 148 75 148ZM75 150C116.421 150 150 116.421 150 75C150 33.5786 116.421 0 75 0C33.5786 0 0 33.5786 0 75C0 116.421 33.5786 150 75 150Z" fill="#FFC41E"/>
<path fill-rule="evenodd" clip-rule="evenodd" d="M73.4386 35.711C74.1289 34.8487 75.3875 34.7091 76.2499 35.3994L116.25 67.4159C117.112 68.1061 117.252 69.3647 116.562 70.2271C115.871 71.0894 114.613 71.229 113.75 70.5387L73.7503 38.5222C72.8879 37.832 72.7484 36.5734 73.4386 35.711Z" fill="#242424"/>
<path fill-rule="evenodd" clip-rule="evenodd" d="M76.5615 35.711C77.2517 36.5734 77.1122 37.832 76.2499 38.5222L36.2499 70.5387C35.3875 71.229 34.1289 71.0894 33.4387 70.2271C32.7484 69.3647 32.8879 68.1061 33.7503 67.4159L73.7503 35.3994C74.6126 34.7091 75.8713 34.8487 76.5615 35.711Z" fill="#242424"/>
<path fill-rule="evenodd" clip-rule="evenodd" d="M47 58.9732C48.1046 58.9732 49 59.8686 49 60.9732V113C49 114.105 48.1046 115 47 115C45.8954 115 45 114.105 45 113V60.9732C45 59.8686 45.8954 58.9732 47 58.9732Z" fill="#242424"/>
<path fill-rule="evenodd" clip-rule="evenodd" d="M103 58.9732C104.105 58.9732 105 59.8686 105 60.9732V113C105 114.105 104.105 115 103 115C101.895 115 101 114.105 101 113V60.9732C101 59.8686 101.895 58.9732 103 58.9732Z" fill="#242424"/>
<path fill-rule="evenodd" clip-rule="evenodd" d="M45 113C45 111.895 45.8954 111 47 111H103C104.105 111 105 111.895 105 113C105 114.105 104.105 115 103 115H47C45.8954 115 45 114.105 45 113Z" fill="#242424"/>
<path d="M75.2879 78.7485L85.7219 82.3937V97.2641C85.7219 97.553 85.6046 97.83 85.3958 98.0343C85.187 98.2385 84.9038 98.3533 84.6085 98.3533H80.1549C79.8596 98.3533 79.5764 98.2385 79.3676 98.0343C79.1588 97.83 79.0415 97.553 79.0415 97.2641V89.64H67.9075V97.2641C67.9075 97.553 67.7902 97.83 67.5813 98.0343C67.3725 98.2385 67.0893 98.3533 66.7941 98.3533H62.3404C62.0452 98.3533 61.762 98.2385 61.5532 98.0343C61.3444 97.83 61.227 97.553 61.227 97.2641V82.7028C58.6412 81.8008 56.7734 79.406 56.7734 76.5701C56.7734 75.9924 57.008 75.4384 57.4257 75.0298C57.8433 74.6213 58.4097 74.3918 59.0002 74.3918C59.5908 74.3918 60.1572 74.6213 60.5748 75.0298C60.9924 75.4384 61.227 75.9924 61.227 76.5701C61.2281 77.1475 61.4631 77.701 61.8805 78.1093C62.2978 78.5175 62.8636 78.7474 63.4538 78.7485H75.2879ZM92.4023 71.1244V73.3027C92.4023 74.4581 91.9331 75.5662 91.0979 76.3833C90.2627 77.2003 89.1299 77.6593 87.9487 77.6593H85.7219V80.0813L76.8147 76.9697V66.7677C76.8147 65.7977 78.013 65.3117 78.7151 65.9978L80.6135 67.8569H84.3454C85.1046 67.8569 85.9982 68.396 86.337 69.0611L86.8353 70.0352H91.2889C91.5842 70.0352 91.8674 70.15 92.0762 70.3542C92.285 70.5585 92.4023 70.8355 92.4023 71.1244ZM84.6085 71.1244C84.6085 70.9089 84.5432 70.6984 84.4208 70.5193C84.2985 70.3401 84.1246 70.2005 83.9212 70.1181C83.7177 70.0357 83.4938 70.0141 83.2779 70.0561C83.0619 70.0982 82.8635 70.2019 82.7078 70.3542C82.5521 70.5065 82.446 70.7006 82.4031 70.9119C82.3601 71.1232 82.3822 71.3421 82.4664 71.5412C82.5507 71.7402 82.6934 71.9103 82.8765 72.03C83.0596 72.1496 83.2749 72.2135 83.4951 72.2135C83.7904 72.2135 84.0736 72.0988 84.2824 71.8945C84.4912 71.6903 84.6085 71.4132 84.6085 71.1244Z" fill="#242424"/>
<path d="M69.7669 39.6964C69.2141 38.386 68.417 37.1985 67.4202 36.2005C66.4227 35.1994 65.2466 34.4039 63.9559 33.8571C62.6175 33.288 61.182 32.9966 59.7327 33C57.6995 33 55.7158 33.57 53.9919 34.6467C53.5794 34.9042 53.1876 35.1871 52.8165 35.4953C52.4453 35.1871 52.0535 34.9042 51.6411 34.6467C49.9172 33.57 47.9334 33 45.9002 33C44.4361 33 43.0174 33.2871 41.6771 33.8571C40.3821 34.406 39.2149 35.1956 38.2127 36.2005C37.2147 37.1974 36.4174 38.3852 35.8661 39.6964C35.2928 41.0602 35 42.5084 35 43.9988C35 45.4048 35.2804 46.8699 35.8372 48.3604C36.3032 49.6059 36.9714 50.8979 37.8251 52.2026C39.1778 54.2672 41.0378 56.4205 43.3473 58.6034C47.1746 62.2218 50.9647 64.7214 51.1256 64.8227L52.103 65.4645C52.536 65.7474 53.0928 65.7474 53.5258 65.4645L54.5033 64.8227C54.6641 64.7171 58.4501 62.2218 62.2815 58.6034C64.591 56.4205 66.451 54.2672 67.8038 52.2026C68.6575 50.8979 69.3297 49.6059 69.7916 48.3604C70.3484 46.8699 70.6288 45.4048 70.6288 43.9988C70.6329 42.5084 70.3401 41.0602 69.7669 39.6964Z" fill="#FFC41E"/>
</svg>
