<svg width="82" height="111" viewBox="0 0 82 111" fill="none" xmlns="http://www.w3.org/2000/svg">
<path d="M2 68.9353V30.1566C2 28.2867 2.7326 26.4933 4.03663 25.1711C5.34066 23.8488 7.10931 23.106 8.95349 23.106V23.106C10.7977 23.106 12.5663 23.8488 13.8703 25.1711C15.1744 26.4933 15.907 28.2867 15.907 30.1566V54.834" stroke="black" stroke-width="4" stroke-linecap="round" stroke-linejoin="round"/>
<path d="M15.9067 55.0657V16.287C15.9067 14.417 16.6712 12.6237 18.0319 11.3014C19.3926 9.97916 21.2382 9.23633 23.1626 9.23633C25.0869 9.23633 26.9325 9.97916 28.2932 11.3014C29.6539 12.6237 30.4184 14.417 30.4184 16.287V51.5404" stroke="black" stroke-width="4" stroke-linecap="round" stroke-linejoin="round"/>
<path d="M44.3257 51.629V19.8646C44.3257 18.0054 45.0901 16.2223 46.4509 14.9077C47.8116 13.5931 49.6571 12.8545 51.5815 12.8545V12.8545C53.5059 12.8545 55.3514 13.5931 56.7121 14.9077C58.0729 16.2223 58.8373 18.0054 58.8373 19.8646V68.9352" stroke="black" stroke-width="4" stroke-linecap="round" stroke-linejoin="round"/>
<path d="M30.4185 51.4475V9.06392C30.4185 7.19045 31.1511 5.39372 32.4551 4.06898C33.7591 2.74423 35.5278 2 37.3719 2C39.2161 2 40.9848 2.74423 42.2888 4.06898C43.5928 5.39372 44.3254 7.19045 44.3254 9.06392V51.4475" stroke="black" stroke-width="4" stroke-linecap="round" stroke-linejoin="round"/>
<path d="M2 69.0958C2 95.1343 16.1802 108.131 35.678 108.131C55.1758 108.131 63.0879 99.3483 67.5834 88.6135L79.2622 56.6753C80.7378 52.672 80.0687 48.9592 76.6322 47.0052C73.1935 45.0489 68.6758 46.0559 66.8146 49.5957L58.7208 69.0958" stroke="black" stroke-width="4" stroke-linecap="round" stroke-linejoin="round"/>
<path fill-rule="evenodd" clip-rule="evenodd" d="M39.524 72.5057C39.7136 72.5339 39.9051 72.5481 40.0968 72.5481C41.5022 72.5481 42.8678 71.8062 43.9447 70.4588C44.903 69.2593 45.569 67.6447 45.8224 65.9101C46.4215 61.7838 44.5962 58.2189 41.6669 57.7875C41.4773 57.7593 41.2858 57.7451 41.0941 57.7451C39.6905 57.7469 38.3222 58.4879 37.2471 59.8326C36.2878 61.0312 35.6182 62.6476 35.3684 64.3849C34.7693 68.5112 36.5946 72.0761 39.524 72.5057ZM28.6073 72.5482C27.2028 72.5482 25.8363 71.8063 24.7594 70.4589C23.8002 69.2594 23.1305 67.6448 22.8807 65.912C22.2817 61.7839 24.107 58.219 27.0363 57.7894C27.2259 57.7612 27.4174 57.747 27.6091 57.747C29.0127 57.747 30.381 58.488 31.4561 59.8327C32.4153 61.0313 33.085 62.6476 33.3357 64.3832C33.9348 68.5113 32.1095 72.0762 29.1801 72.5058C28.9905 72.534 28.799 72.5482 28.6073 72.5482ZM55.563 69.9083C55.0607 68.7179 54.2264 67.8596 53.1495 67.4273L53.135 67.4219C52.6448 67.2304 52.123 67.1324 51.5966 67.1331H51.5386C49.0736 67.1701 46.5569 69.2594 45.2773 72.3324C44.3388 74.5797 44.2311 76.9966 44.9895 78.798C45.4908 79.9893 46.327 80.8476 47.4084 81.2799L47.4202 81.2844C47.9104 81.4757 48.4322 81.5737 48.9586 81.5732C51.4472 81.5732 53.9902 79.4839 55.2933 76.3703C56.22 74.1257 56.3222 71.7106 55.563 69.9083ZM45.7134 83.1626C44.2917 82.3107 42.9478 81.5047 42.07 80.0571C39.6484 76.05 38.1859 73.6312 34.3517 73.6312C30.5174 73.6312 29.0513 76.05 26.6243 80.0571C25.7456 81.505 24.4009 82.3117 22.9763 83.1663L22.9763 83.1663L22.9719 83.169L22.9717 83.1691C21.3365 84.1492 19.647 85.1618 18.9177 87.1544C18.6341 87.8728 18.4913 88.6387 18.4969 89.4107C18.4969 92.6552 21.0307 95.2951 24.1438 95.2951C25.7501 95.2951 27.4595 94.74 29.2685 94.1525C31.0079 93.5875 32.806 93.0036 34.3607 93.0036C35.9154 93.0036 37.709 93.5875 39.442 94.1525L39.4908 94.1683L39.4908 94.1683C41.2781 94.7464 42.9632 95.2915 44.5595 95.2915C47.6681 95.2915 50.1974 92.6516 50.1974 89.4071C50.2 88.6345 50.054 87.8686 49.7676 87.1508C49.0383 85.1566 47.3483 84.1431 45.7142 83.1631L45.7134 83.1626ZM21.296 81.2799L21.2833 81.2844C20.794 81.4757 20.2731 81.5736 19.7476 81.5732C17.2617 81.5732 14.7197 79.483 13.4229 76.373C12.4862 74.1257 12.3795 71.7115 13.1378 69.9065C13.6382 68.7161 14.4735 67.8551 15.5504 67.4264L15.5631 67.4219C16.0532 67.2303 16.5751 67.1323 17.1015 67.1331C19.5874 67.1331 22.1294 69.2233 23.4262 72.3333C24.3629 74.5806 24.4696 76.9948 23.7113 78.7998C23.2108 79.9902 22.3756 80.8476 21.296 81.2799Z" fill="#FFC41E"/>
</svg>
