<svg width="131" height="95" viewBox="0 0 131 95" fill="none" xmlns="http://www.w3.org/2000/svg">
<path fill-rule="evenodd" clip-rule="evenodd" d="M51.4277 7.40591C51.4277 5.44174 52.2087 3.55802 53.5989 2.16914C54.9891 0.780263 56.8746 0 58.8406 0L103.318 0C105.284 0 107.169 0.780263 108.56 2.16914C109.95 3.55802 110.731 5.44174 110.731 7.40591V25.9207H51.4277V7.40591ZM94.0519 11.1089C93.5604 11.1089 93.089 11.3039 92.7414 11.6511C92.3939 11.9984 92.1986 12.4693 92.1986 12.9603V16.6633C92.1986 17.1543 92.3939 17.6253 92.7414 17.9725C93.089 18.3197 93.5604 18.5148 94.0519 18.5148H101.465C101.956 18.5148 102.428 18.3197 102.775 17.9725C103.123 17.6253 103.318 17.1543 103.318 16.6633V12.9603C103.318 12.4693 103.123 11.9984 102.775 11.6511C102.428 11.3039 101.956 11.1089 101.465 11.1089H94.0519Z" fill="#FFC41E"/>
<path d="M51.4272 33.3267V37.0296C51.4272 38.9938 52.2082 40.8775 53.5984 42.2664C54.9886 43.6553 56.8741 44.4355 58.8401 44.4355H103.317C105.284 44.4355 107.169 43.6553 108.559 42.2664C109.949 40.8775 110.73 38.9938 110.73 37.0296V33.3267H51.4272Z" fill="#FFC41E"/>
<mask id="path-3-inside-1" fill="white">
<rect y="34.7285" width="20.1631" height="58.2713" rx="2"/>
</mask>
<rect y="34.7285" width="20.1631" height="58.2713" rx="2" stroke="#242424" stroke-width="10" mask="url(#path-3-inside-1)"/>
<path d="M26.5195 44.6233V83.2727C35.415 83.2727 38.1521 85.0804 47.2756 85.6511C78.3586 95.4305 84.918 92.0549 100.047 83.2727C105.644 80.0236 114.739 72.9828 121.036 67.8129C129.49 59.4407 128.64 57.2289 126.742 55.3262C118.439 47.0017 109.544 66.6237 92.939 67.8129C80.1534 68.7286 58.5432 66.6237 53.2059 66.6237" stroke="#242424" stroke-width="5"/>
<path d="M24.5581 44.6546C29.7674 44.2827 40.2213 42.7454 44.9038 44.6234C50.8341 47.0018 53.2973 52.2105 56.6703 53.3412C64.3663 55.9209 76.9469 55.4902 81.6717 55.9209C88.195 56.5155 98.8696 56.5154 98.2766 65.4345C97.9023 71.0629 66.2529 66.6237 53.7992 66.6237" stroke="#242424" stroke-width="5"/>
</svg>
