<svg width="150" height="150" viewBox="0 0 150 150" fill="none" xmlns="http://www.w3.org/2000/svg">
<path fill-rule="evenodd" clip-rule="evenodd" d="M75 148C115.317 148 148 115.317 148 75C148 34.6832 115.317 2 75 2C34.6832 2 2 34.6832 2 75C2 115.317 34.6832 148 75 148ZM75 150C116.421 150 150 116.421 150 75C150 33.5786 116.421 0 75 0C33.5786 0 0 33.5786 0 75C0 116.421 33.5786 150 75 150Z" fill="#FFC41E"/>
<path fill-rule="evenodd" clip-rule="evenodd" d="M65.5615 47.2763C65.5615 45.8769 66.1168 44.5349 67.1051 43.5454C68.0934 42.5559 69.4339 42 70.8316 42H102.452C103.85 42 105.19 42.5559 106.179 43.5454C107.167 44.5349 107.722 45.8769 107.722 47.2763V60.4671H65.5615V47.2763ZM95.8646 49.9145C95.5151 49.9145 95.18 50.0534 94.9329 50.3008C94.6859 50.5482 94.5471 50.8837 94.5471 51.2335V53.8717C94.5471 54.2215 94.6859 54.557 94.9329 54.8044C95.18 55.0518 95.5151 55.1908 95.8646 55.1908H101.135C101.484 55.1908 101.819 55.0518 102.066 54.8044C102.313 54.557 102.452 54.2215 102.452 53.8717V51.2335C102.452 50.8837 102.313 50.5482 102.066 50.3008C101.819 50.0534 101.484 49.9145 101.135 49.9145H95.8646Z" fill="#FFC41E"/>
<path d="M65.5615 65.7433V68.3815C65.5615 69.7809 66.1168 71.1229 67.1051 72.1124C68.0934 73.1019 69.4339 73.6578 70.8316 73.6578H102.452C103.85 73.6578 105.19 73.1019 106.179 72.1124C107.167 71.1229 107.722 69.7809 107.722 68.3815V65.7433H65.5615Z" fill="#FFC41E"/>
<path fill-rule="evenodd" clip-rule="evenodd" d="M33 70.6338V104H39.3347V70.6338H33ZM31 66.6338C29.8954 66.6338 29 67.5292 29 68.6338V106C29 107.105 29.8954 108 31 108H41.3347C42.4392 108 43.3347 107.105 43.3347 106V68.6338C43.3347 67.5292 42.4392 66.6338 41.3347 66.6338H31Z" fill="#242424"/>
<path fill-rule="evenodd" clip-rule="evenodd" d="M45.8535 73.6578H49.8535V99.139C52.1216 99.2433 53.8365 99.518 55.5212 99.8178C55.7316 99.8552 55.9408 99.8929 56.1502 99.9306C58.037 100.27 59.9344 100.612 62.7345 100.787L62.9772 100.802L63.2092 100.875C74.2169 104.333 80.581 105.359 85.4289 104.889C90.2109 104.426 93.7134 102.5 99.1241 99.3642C102.925 97.1608 109.23 92.3009 113.708 88.6326C116.666 85.6996 117.674 84.1342 117.938 83.3374C117.995 83.1653 118.001 83.0753 117.999 83.0399C117.995 83.0308 117.982 83.0047 117.948 82.9583C117.899 82.8907 117.821 82.8001 117.69 82.6691C117.16 82.1379 116.73 81.9304 116.394 81.8498C116.056 81.7685 115.649 81.7764 115.101 81.9427C113.891 82.3102 112.459 83.2865 110.504 84.7545C110.252 84.9434 109.994 85.1389 109.729 85.3394C106.149 88.052 101.368 91.6749 95.2162 92.1148C90.5327 92.4497 84.3061 92.2308 78.8569 91.9387C76.6508 91.8204 74.5911 91.6917 72.7944 91.5795C70.057 91.4085 67.93 91.2757 66.8259 91.2757V87.2757C68.0446 87.2757 70.4082 87.4227 73.3002 87.6027C75.0726 87.713 77.0435 87.8357 79.0711 87.9444C84.5246 88.2368 90.5247 88.4401 94.9309 88.125C99.8527 87.773 103.734 84.8474 107.472 82.0302C107.682 81.8716 107.892 81.7133 108.102 81.5558C109.941 80.1746 111.935 78.7238 113.939 78.1152C114.999 77.7934 116.146 77.676 117.33 77.9607C118.517 78.2462 119.575 78.8961 120.52 79.8423C120.92 80.242 121.467 80.8496 121.771 81.7063C122.096 82.6244 122.066 83.5955 121.736 84.5937C121.138 86.3996 119.457 88.5737 116.455 91.5419L116.389 91.6075L116.317 91.6665C111.846 95.3316 105.266 100.427 101.13 102.825C95.7848 105.923 91.5777 108.313 85.8145 108.871C80.1569 109.419 73.1981 108.192 62.2408 104.763C59.3324 104.569 57.2924 104.201 55.4442 103.868C55.2342 103.83 55.0266 103.793 54.8205 103.756C52.7913 103.395 50.8517 103.095 47.8535 103.095H45.8535V73.6578ZM117.996 83.0216C117.997 83.0212 117.999 83.0264 117.999 83.0388C117.996 83.0282 117.996 83.022 117.996 83.0216Z" fill="#242424"/>
<path fill-rule="evenodd" clip-rule="evenodd" d="M48.5105 75.4567C47.7138 75.5318 46.9759 75.6014 46.3208 75.6518L46.0137 71.6637C46.5509 71.6223 47.2204 71.5594 47.9746 71.4886C49.6052 71.3355 51.6319 71.1451 53.574 71.0545C55.0211 70.987 56.5023 70.9687 57.8617 71.0603C59.1915 71.1499 60.5463 71.3523 61.6671 71.8012C64.1591 72.7992 65.8845 74.3823 67.1858 75.6539C67.3522 75.8165 67.5072 75.9696 67.6539 76.1143C68.1103 76.5649 68.4848 76.9345 68.864 77.2594C69.3513 77.6768 69.6802 77.8684 69.9236 77.9499C72.3869 78.7744 75.7595 79.1478 79.0821 79.3375C80.6671 79.428 82.1943 79.4749 83.5603 79.5169L83.6997 79.5211C85.0722 79.5633 86.331 79.6029 87.2445 79.686C87.5924 79.7177 87.9757 79.7474 88.3852 79.7792C90.4715 79.9411 93.2414 80.1561 95.5207 80.9498C96.9312 81.441 98.3655 82.2153 99.4095 83.5075C100.492 84.8475 100.998 86.5496 100.864 88.5643C100.756 90.1813 99.5104 91.0365 98.6172 91.4386C97.6778 91.8615 96.5003 92.0946 95.2919 92.2355C92.8374 92.5217 89.5872 92.4947 86.1931 92.35C83.2146 92.2231 80.0316 92.0003 77.0489 91.7916C76.6104 91.7609 76.1762 91.7305 75.7477 91.7008C72.3712 91.4665 69.3782 91.2756 67.2476 91.2756V87.2756C69.5439 87.2756 72.6837 87.4786 76.0245 87.7104C76.457 87.7404 76.8935 87.7709 77.3329 87.8017C80.321 88.0107 83.444 88.2292 86.3635 88.3537C89.7345 88.4974 92.7128 88.5091 94.8287 88.2624C95.8238 88.1464 96.4913 87.9871 96.8841 87.8298C96.8655 86.9582 96.6119 86.4098 96.298 86.0212C95.8927 85.5196 95.2189 85.0803 94.2052 84.7273C92.4661 84.1217 90.3488 83.9521 88.2556 83.7845C87.7951 83.7476 87.3358 83.7109 86.8819 83.6696C86.1158 83.5998 84.997 83.5629 83.5768 83.5192L83.4236 83.5145C82.0662 83.4729 80.4927 83.4245 78.8541 83.331C75.4972 83.1393 71.6621 82.7499 68.654 81.7431C67.6984 81.4232 66.9091 80.8517 66.2619 80.2973C65.7644 79.8712 65.2517 79.3646 64.7735 78.8922C64.6428 78.7631 64.5146 78.6365 64.3901 78.5147C63.1622 77.3148 61.904 76.2049 60.18 75.5145C59.6362 75.2967 58.771 75.1307 57.5928 75.0513C56.4443 74.9739 55.1296 74.9862 53.7605 75.0501C51.904 75.1368 50.0915 75.3077 48.5105 75.4567ZM97.1473 87.6999C97.1478 87.7 97.1432 87.7037 97.1322 87.7107C97.1414 87.7033 97.1469 87.6998 97.1473 87.6999Z" fill="#242424"/>
</svg>
