<svg width="770" height="404" viewBox="0 0 770 404" fill="none" xmlns="http://www.w3.org/2000/svg">
<g opacity="0.5">
<path d="M80.0658 149.943V99.4165H56.5567L31.217 149.943H0L29.9645 90.1774C15.5121 82.2216 8.28599 69.8707 8.28599 53.1248C8.28599 39.3945 12.7823 28.7759 21.7748 21.2692C30.7674 13.7624 43.3248 9.94486 59.4472 9.81654H109.067V149.943H80.0658ZM37.1906 55.2421C37.1906 63.0697 39.0855 68.7479 42.8752 72.2767C46.7291 75.8055 52.4779 77.5699 60.1216 77.5699H80.0658V33.203H60.1216C44.8343 33.203 37.1906 40.5494 37.1906 55.2421Z" fill="white"/>
<path d="M232.008 51.585C245.368 51.585 256.031 56.012 263.995 64.8662C271.96 73.7203 275.943 85.7504 275.943 100.956V102.304C275.943 117.317 271.511 129.347 262.647 138.394C253.783 147.441 241.867 151.964 226.901 151.964C211.871 151.964 199.891 147.088 190.963 137.335C182.099 127.519 177.667 114.206 177.667 97.3955V92.7759C177.796 69.3574 181.746 51.0396 189.518 37.8226C197.354 24.5414 209.109 16.1684 224.782 12.7038C233.003 10.9073 238.302 9.14286 240.679 7.41053C243.056 5.61404 244.244 3.14386 244.244 0H266.79C266.79 10.0732 264.06 17.6441 258.6 22.7128C253.204 27.7815 243.57 31.6952 229.695 34.4541C221.474 36.1223 214.986 39.3624 210.233 44.1744C205.48 48.9865 202.268 55.7554 200.598 64.4812C209.462 55.8837 219.932 51.585 232.008 51.585ZM226.709 74.1053C220.093 74.1053 214.89 76.3188 211.1 80.7459C207.375 85.1729 205.512 92.3589 205.512 102.304C205.512 111.158 207.342 117.927 211.004 122.611C214.665 127.23 219.964 129.54 226.901 129.54C233.646 129.54 238.848 127.262 242.51 122.707C246.171 118.151 248.034 111.447 248.098 102.592V100.283C248.098 91.7494 246.203 85.2692 242.413 80.8421C238.688 76.3509 233.453 74.1053 226.709 74.1053Z" fill="white"/>
<path d="M331.536 110.58L350.806 45.8105H380.674L338.762 166.111L336.45 171.597C330.219 185.199 319.942 192 305.618 192C301.571 192 297.461 191.39 293.285 190.171V169.095L297.525 169.191C302.792 169.191 306.71 168.389 309.279 166.785C311.913 165.181 313.968 162.518 315.446 158.797L318.722 150.232L282.205 45.8105H312.17L331.536 110.58Z" fill="white"/>
<path d="M387.707 127.519C394.002 120.846 398.273 114.238 400.522 107.693C402.77 101.149 404.022 91.8777 404.279 79.8797L405.05 45.8105H481.744V127.519H496.774V181.221H468.929V149.943H407.17V181.221H378.747V127.519H387.707ZM420.562 127.519H453.995V68.812H432.317L432.124 81.3233C431.546 100.443 427.692 115.842 420.562 127.519Z" fill="white"/>
<path d="M549.862 110.58L569.132 45.8105H599L557.088 166.111L554.776 171.597C548.545 185.199 538.268 192 523.944 192C519.898 192 515.787 191.39 511.612 190.171V169.095L515.851 169.191C521.118 169.191 525.036 168.389 527.606 166.785C530.239 165.181 532.295 162.518 533.772 158.797L537.048 150.232L500.532 45.8105H530.496L549.862 110.58Z" fill="white"/>
</g>
<g opacity="0.6">
<path d="M70.6099 192V268.217H50.2368V208.483H32.2606L30.9917 232.011C30.1927 244.549 27.7254 253.683 23.5897 259.412C19.454 265.141 13.2974 268.076 5.12 268.217H-1.78851L-2 251.664L0.537822 251.452C4.20356 251.171 6.88238 249.01 8.57426 244.972C10.2661 240.933 11.3236 234.053 11.7465 224.332L13.1564 192H70.6099Z" fill="white"/>
<path d="M114.81 239.407L128.909 192H150.763L120.097 280.051L118.406 284.066C113.847 294.022 106.327 299 95.8471 299C92.8863 299 89.8785 298.554 86.8238 297.662V282.235L89.9255 282.305C93.7793 282.305 96.6461 281.718 98.5259 280.544C100.453 279.37 101.957 277.422 103.038 274.698L105.434 268.429L78.7168 192H100.641L114.81 239.407Z" fill="white"/>
<path d="M223.091 268.217H202.718V244.267C198.911 244.972 195.363 245.324 192.073 245.324C180.559 245.324 171.888 242.882 166.06 237.998C160.233 233.114 157.272 225.976 157.178 216.584V192H177.551V216.584C177.598 220.998 178.679 224.168 180.794 226.093C182.909 227.972 186.668 228.911 192.073 228.911C195.457 228.911 199.005 228.512 202.718 227.714V192H223.091V268.217Z" fill="white"/>
<path d="M259.114 192V251.804H280.051V192H300.494V251.804H321.431V192H341.804V268.217H238.741V192H259.114Z" fill="white"/>
<path d="M404.122 192H424.495V268.217H404.122V221.163L378.603 268.217H358.159V192H378.603V238.984L404.122 192Z" fill="white"/>
<path d="M486.531 244.197L506.481 192H532V268.217H511.627V221.444L493.369 268.217H479.693L461.787 222.219V268.217H441.414V192H466.722L486.531 244.197Z" fill="white"/>
</g>
<g opacity="0.5">
<path d="M302.46 357.418C306.998 352.597 310.077 347.823 311.698 343.096C313.319 338.368 314.222 331.67 314.407 323.003L314.963 298.391H370.254V357.418H381.089V396.213H361.015V373.617H316.491V396.213H296V357.418H302.46ZM326.146 357.418H350.249V315.007H334.62L334.481 324.045C334.064 337.858 331.286 348.982 326.146 357.418Z" fill="white"/>
<path d="M457.705 336.699C457.705 348.287 455.065 357.58 449.786 364.579C444.553 371.532 437.468 375.008 428.531 375.008C420.937 375.008 414.801 372.366 410.124 367.082V402.54H390.05V298.391H408.665L409.36 305.76C414.222 299.92 420.566 297 428.392 297C437.654 297 444.854 300.43 449.994 307.29C455.135 314.15 457.705 323.605 457.705 335.656V336.699ZM437.63 335.239C437.63 328.24 436.38 322.84 433.88 319.04C431.425 315.239 427.836 313.339 423.113 313.339C416.815 313.339 412.486 315.749 410.124 320.569V351.369C412.578 356.329 416.954 358.808 423.252 358.808C432.838 358.808 437.63 350.952 437.63 335.239Z" fill="white"/>
<path d="M497.436 345.181L511.328 298.391H532.861L502.646 385.298L500.979 389.261C496.487 399.087 489.078 404 478.751 404C475.834 404 472.87 403.56 469.86 402.679V387.453L472.916 387.522C476.714 387.522 479.538 386.943 481.391 385.784C483.289 384.626 484.771 382.702 485.836 380.014L488.198 373.826L461.872 298.391H483.475L497.436 345.181Z" fill="white"/>
<path d="M591.972 314.66H560.854V373.617H540.78V298.391H591.972V314.66Z" fill="white"/>
<path d="M595.862 335.309C595.862 327.846 597.298 321.195 600.169 315.355C603.04 309.515 607.161 304.995 612.533 301.797C617.951 298.599 624.225 297 631.356 297C641.498 297 649.764 300.105 656.154 306.316C662.591 312.527 666.179 320.963 666.92 331.624L667.059 336.769C667.059 348.31 663.841 357.58 657.404 364.579C650.967 371.532 642.331 375.008 631.495 375.008C620.659 375.008 612 371.532 605.517 364.579C599.08 357.626 595.862 348.171 595.862 336.212V335.309ZM615.936 336.769C615.936 343.907 617.279 349.376 619.965 353.177C622.651 356.931 626.494 358.808 631.495 358.808C636.358 358.808 640.155 356.954 642.887 353.246C645.619 349.492 646.985 343.513 646.985 335.309C646.985 328.31 645.619 322.887 642.887 319.04C640.155 315.193 636.311 313.269 631.356 313.269C626.448 313.269 622.651 315.193 619.965 319.04C617.279 322.84 615.936 328.75 615.936 336.769Z" fill="white"/>
<path d="M725.198 349.909L744.855 298.391H770V373.617H749.926V327.452L731.936 373.617H718.46L700.817 328.217V373.617H680.743V298.391H705.679L725.198 349.909Z" fill="white"/>
</g>
</svg>
